<svg width="15" height="15" viewBox="0 0 15 15" fill="none" xmlns="http://www.w3.org/2000/svg">
    <path
        d="M6.42857 0H0.321429C0.144643 0 0 0.144643 0 0.321429V6.42857C0 6.60536 0.144643 6.75 0.321429 6.75H6.42857C6.60536 6.75 6.75 6.60536 6.75 6.42857V0.321429C6.75 0.144643 6.60536 0 6.42857 0ZM5.38393 5.38393H1.36607V1.36607H5.38393V5.38393ZM14.4643 0H8.35714C8.18036 0 8.03571 0.144643 8.03571 0.321429V6.42857C8.03571 6.60536 8.18036 6.75 8.35714 6.75H14.4643C14.6411 6.75 14.7857 6.60536 14.7857 6.42857V0.321429C14.7857 0.144643 14.6411 0 14.4643 0ZM13.4196 5.38393H9.40179V1.36607H13.4196V5.38393ZM6.42857 8.03571H0.321429C0.144643 8.03571 0 8.18036 0 8.35714V14.4643C0 14.6411 0.144643 14.7857 0.321429 14.7857H6.42857C6.60536 14.7857 6.75 14.6411 6.75 14.4643V8.35714C6.75 8.18036 6.60536 8.03571 6.42857 8.03571ZM5.38393 13.4196H1.36607V9.40179H5.38393V13.4196ZM14.4643 8.03571H8.35714C8.18036 8.03571 8.03571 8.18036 8.03571 8.35714V14.4643C8.03571 14.6411 8.18036 14.7857 8.35714 14.7857H14.4643C14.6411 14.7857 14.7857 14.6411 14.7857 14.4643V8.35714C14.7857 8.18036 14.6411 8.03571 14.4643 8.03571ZM13.4196 13.4196H9.40179V9.40179H13.4196V13.4196Z"
        fill="currentColor" />
</svg>
    