<svg width="14" height="14" viewBox="0 0 14 14" fill="none" xmlns="http://www.w3.org/2000/svg">
    <path
        d="M5.43921 0.752167C6.69073 0.752167 7.8693 1.23933 8.75366 2.12521C9.63804 3.01115 10.1267 4.18654 10.1267 5.43967C10.1267 6.48651 9.78665 7.48207 9.15698 8.29611L13.2146 12.3537C13.2263 12.3655 13.2355 12.3794 13.2419 12.3947C13.2484 12.4103 13.2517 12.4277 13.2517 12.4445C13.2517 12.4613 13.2483 12.4779 13.2419 12.4934C13.2356 12.5087 13.2263 12.5226 13.2146 12.5344L12.533 13.2141C12.5211 13.2259 12.5074 13.236 12.4919 13.2424C12.4764 13.2488 12.459 13.2522 12.4421 13.2522C12.4255 13.2521 12.4087 13.2488 12.3933 13.2424C12.3778 13.236 12.3641 13.2259 12.3523 13.2141L8.2937 9.15842C7.4797 9.78638 6.48594 10.1272 5.43921 10.1272C4.18618 10.1271 3.01005 9.63902 2.12573 8.75314C1.24143 7.8688 0.751734 6.69115 0.751709 5.43967C0.751709 4.18654 1.23979 3.00959 2.12573 2.12521C3.01001 1.2411 4.18789 0.752234 5.43921 0.752167ZM5.43921 1.93967C4.50493 1.93973 3.62704 2.30418 2.9646 2.96506C2.30378 3.62597 1.93921 4.50538 1.93921 5.43967C1.93923 6.37397 2.30374 7.25181 2.9646 7.91428C3.62704 8.57515 4.50493 8.9396 5.43921 8.93967C6.37358 8.93967 7.25229 8.57521 7.91479 7.91428C8.57551 7.2534 8.93918 6.37386 8.93921 5.43967C8.93921 4.50548 8.57548 3.62751 7.91479 2.96506C7.25386 2.30256 6.37358 1.93967 5.43921 1.93967Z"
        fill="currentColor" />
</svg>
    