<svg width="14" height="14" viewBox="0 0 14 14" fill="none" xmlns="http://www.w3.org/2000/svg">
    <path
        d="M7 0C10.8656 0 14 3.13438 14 7C14 10.8656 10.8656 14 7 14C3.13438 14 0 10.8656 0 7C0 3.13438 3.13438 0 7 0ZM9.18945 4.51562C9.02852 4.51562 8.87793 4.59395 8.78418 4.72363L6.32812 8.12988L5.21582 6.58594C5.12207 6.45469 4.96992 6.37793 4.81055 6.37793H4.07812C3.97667 6.37793 3.9175 6.49338 3.97656 6.57617L5.9248 9.27637C5.97071 9.34043 6.0315 9.39263 6.10156 9.42871C6.1718 9.4648 6.25013 9.48438 6.3291 9.48438C6.40799 9.48434 6.48549 9.46475 6.55566 9.42871C6.62589 9.39264 6.68643 9.34053 6.73242 9.27637L10.0234 4.71387C10.0827 4.63106 10.0234 4.51562 9.92188 4.51562H9.18945Z"
        fill="var(--success-foreground)" />
</svg>