<svg width="16" height="16" viewBox="0 0 16 16" fill="none" xmlns="http://www.w3.org/2000/svg">
<path d="M7.875 0C3.52617 0 0 3.52617 0 7.875C0 12.2238 3.52617 15.75 7.875 15.75C12.2238 15.75 15.75 12.2238 15.75 7.875C15.75 3.52617 12.2238 0 7.875 0ZM7.3125 4.07812C7.3125 4.00078 7.37578 3.9375 7.45312 3.9375H8.29688C8.37422 3.9375 8.4375 4.00078 8.4375 4.07812V8.85938C8.4375 8.93672 8.37422 9 8.29688 9H7.45312C7.37578 9 7.3125 8.93672 7.3125 8.85938V4.07812ZM7.875 11.8125C7.65421 11.808 7.44398 11.7171 7.28942 11.5594C7.13486 11.4016 7.0483 11.1896 7.0483 10.9688C7.0483 10.7479 7.13486 10.5359 7.28942 10.3781C7.44398 10.2204 7.65421 10.1295 7.875 10.125C8.09579 10.1295 8.30603 10.2204 8.46058 10.3781C8.61514 10.5359 8.7017 10.7479 8.7017 10.9688C8.7017 11.1896 8.61514 11.4016 8.46058 11.5594C8.30603 11.7171 8.09579 11.808 7.875 11.8125Z" fill="#FFA940"/>
</svg>
