<svg width="18" height="18" viewBox="0 0 18 18" fill="none" xmlns="http://www.w3.org/2000/svg">
    <g clip-path="url(#clip0_1_6985)">
        <path
            d="M3.89106 13.8195C3.93124 13.8195 3.97142 13.8155 4.0116 13.8095L7.39061 13.2169C7.43079 13.2088 7.46896 13.1908 7.49709 13.1606L16.0129 4.64477C16.0316 4.62618 16.0463 4.60411 16.0564 4.57981C16.0665 4.5555 16.0717 4.52945 16.0717 4.50314C16.0717 4.47683 16.0665 4.45078 16.0564 4.42647C16.0463 4.40217 16.0316 4.3801 16.0129 4.36151L12.6741 1.02066C12.6359 0.982492 12.5857 0.962402 12.5315 0.962402C12.4772 0.962402 12.427 0.982492 12.3888 1.02066L3.87298 9.53651C3.84284 9.56664 3.82476 9.6028 3.81673 9.64298L3.2241 13.022C3.20455 13.1296 3.21154 13.2404 3.24444 13.3447C3.27734 13.449 3.33518 13.5437 3.41293 13.6207C3.54552 13.7492 3.71227 13.8195 3.89106 13.8195V13.8195ZM5.24508 10.316L12.5315 3.0316L14.004 4.50414L6.71762 11.7885L4.93168 12.1039L5.24508 10.316V10.316ZM16.3926 15.507H1.60691C1.25133 15.507 0.96405 15.7943 0.96405 16.1499V16.8731C0.96405 16.9615 1.03637 17.0338 1.12476 17.0338H16.8748C16.9632 17.0338 17.0355 16.9615 17.0355 16.8731V16.1499C17.0355 15.7943 16.7482 15.507 16.3926 15.507Z"
            fill="currentColor" />
    </g>
    <defs>
        <clipPath id="clip0_1_6985">
            <rect width="18" height="18" fill="white" />
        </clipPath>
    </defs>
</svg>