<svg width="12" height="12" viewBox="0 0 12 12" fill="none" xmlns="http://www.w3.org/2000/svg">
    <path
        d="M7.60693 11.0357H4.39265C4.33372 11.0357 4.28551 11.0839 4.28551 11.1429V11.5714C4.28551 11.8085 4.47702 12 4.71408 12H7.28551C7.52256 12 7.71408 11.8085 7.71408 11.5714V11.1429C7.71408 11.0839 7.66586 11.0357 7.60693 11.0357ZM5.99979 0C3.57434 0 1.60693 1.96741 1.60693 4.39286C1.60693 6.01875 2.49086 7.43839 3.80336 8.19777V9.75C3.80336 9.98705 3.99488 10.1786 4.23193 10.1786H7.76765C8.0047 10.1786 8.19622 9.98705 8.19622 9.75V8.19777C9.50872 7.43839 10.3926 6.01875 10.3926 4.39286C10.3926 1.96741 8.42524 0 5.99979 0ZM7.71274 7.36339L7.23193 7.64196V9.21429H4.76765V7.64196L4.28684 7.36339C3.23283 6.75402 2.57122 5.6317 2.57122 4.39286C2.57122 2.49911 4.10604 0.964286 5.99979 0.964286C7.89354 0.964286 9.42836 2.49911 9.42836 4.39286C9.42836 5.6317 8.76676 6.75402 7.71274 7.36339Z"
        fill="currentColor" />
</svg>