<svg width="14" height="14" viewBox="0 0 14 14" fill="none" xmlns="http://www.w3.org/2000/svg">
    <g clip-path="url(#clip0_1_7151)">
        <path
            d="M10.8471 12.11C12.3096 10.9662 13.2502 9.18497 13.2502 7.18497C13.2502 3.7334 10.4612 0.941217 7.00962 0.936529C3.55337 0.931842 0.750244 3.73028 0.750244 7.18497C0.750244 9.14122 1.64868 10.8865 3.05649 12.0318C3.11118 12.0756 3.19087 12.0662 3.23462 12.0115L3.85024 11.2225C3.89243 11.1693 3.88306 11.0928 3.83149 11.049C3.70493 10.9459 3.58306 10.835 3.46587 10.7178C3.00903 10.2625 2.64499 9.72283 2.39399 9.12872C2.13149 8.51466 2.00024 7.85997 2.00024 7.18497C2.00024 6.50997 2.13149 5.85528 2.39243 5.23965C2.64399 4.64434 3.00493 4.10997 3.46431 3.65059C3.92368 3.19122 4.45806 2.83028 5.05337 2.57872C5.67056 2.31778 6.32524 2.18653 7.00025 2.18653C7.67524 2.18653 8.32993 2.31778 8.94556 2.57872C9.54087 2.83028 10.0752 3.19122 10.5346 3.65059C10.994 4.10997 11.3549 4.64434 11.6065 5.23965C11.8674 5.85528 11.9987 6.50997 11.9987 7.18497C11.9987 7.85997 11.8674 8.51466 11.6065 9.13028C11.3555 9.72439 10.9915 10.2641 10.5346 10.7193C10.3893 10.8647 10.2362 11.0006 10.0768 11.1256L9.44087 10.3115C9.42647 10.2929 9.40711 10.2787 9.38502 10.2707C9.36293 10.2626 9.339 10.2609 9.31599 10.2658C9.29297 10.2706 9.27181 10.2819 9.25493 10.2983C9.23804 10.3147 9.22613 10.3355 9.22056 10.3584L8.60181 12.8928C8.58306 12.9709 8.64243 13.0475 8.72212 13.0475L11.3315 13.06C11.4362 13.06 11.4956 12.9397 11.4299 12.8584L10.8471 12.11Z"
            fill="currentColor" />
    </g>
</svg>